<svg xmlns="http://www.w3.org/2000/svg" width="36" height="36">
    <g transform="translate(2 2)">
        <rect width="36" height="36" rx="18" transform="translate(-2 -2)" style="fill:#1da1f2"/>
        <path data-name="패스 1709" d="M524.17 836.083a11.6 11.6 0 0 0 11.676-11.677c0-.177 0-.354-.012-.53a8.307 8.307 0 0 0 2.046-2.124 8.234 8.234 0 0 1-2.355.646 4.127 4.127 0 0 0 1.8-2.27 8.275 8.275 0 0 1-2.606 1 4.1 4.1 0 0 0-7.1 2.805 4.182 4.182 0 0 0 .105.937 11.659 11.659 0 0 1-8.459-4.288 4.106 4.106 0 0 0 1.272 5.478 4.073 4.073 0 0 1-1.86-.514v.053a4.105 4.105 0 0 0 3.291 4.023 4.105 4.105 0 0 1-1.08.145 4.056 4.056 0 0 1-.772-.076 4.11 4.11 0 0 0 3.833 2.852 8.286 8.286 0 0 1-6.075 1.7 11.605 11.605 0 0 0 6.29 1.845" transform="translate(-511.88 -811.956)" style="fill:#fff"/>
    </g>
</svg>
