<svg xmlns="http://www.w3.org/2000/svg" width="1481" height="275">
    <defs>
        <clipPath id="clip-path">
            <path class="cls-1" d="M0 0h1481v275H0z"/>
        </clipPath>
        <style>
            .cls-1,.cls-3{fill:none}.cls-3{stroke:#2e2e2e}.cls-4{fill:#b3b3b3;font-size:19px;font-family:NotoSansCJKkr-Regular,Noto Sans CJK KR}.cls-5{fill:#fff;font-size:21px;font-family:NotoSansCJKkr-Bold,Noto Sans CJK KR;font-weight:700}.cls-6{fill:gray;font-size:17px;font-family:NotoSansCJKkr-Medium,Noto Sans CJK KR;font-weight:500}.cls-7{stroke:none}
        </style>
    </defs>
    <g id="반복_그리드_87" data-name="반복 그리드 87" style="clip-path:url(#clip-path)">
        <g id="그룹_4451" data-name="그룹 4451" transform="translate(-46 -527)">
            <g id="사각형_2751" data-name="사각형 2751" class="cls-3">
                <path class="cls-7" d="M0 0h297v275H0z" transform="translate(46 527)"/>
                <path class="cls-1" d="M.5.5h296v274H.5z" transform="translate(46 527)"/>
            </g>
            <text id="_3일_내에_회원_스스로_위반_내용을_시정해야_합니다._시정하지_않을_경우_아이디_사용이_제한_될_수_있습니다." data-name="3일 내에 회원 스스로 위반 내용을 시정해야 합니다. 시정하지 않을 경우 아이디 사용이 제한 될 수 있습니다." class="cls-4" transform="translate(73 650)"><tspan x="0" y="22">3일 내에 회원 스스로 위반 내용</tspan><tspan x="0" y="50">을 시정해야 합니다. 시정하지 </tspan><tspan x="0" y="78">않을 경우 아이디 사용이 제한 </tspan><tspan x="0" y="106">될 수 있습니다.</tspan></text>
            <text id="신고_접수" data-name="신고 접수" class="cls-5" transform="translate(73 622)"><tspan x="0" y="0">신고 접수</tspan></text>
            <text id="Step_1" data-name="Step 1" class="cls-6" transform="translate(73 587)"><tspan x="0" y="0">STEP 1</tspan></text>
        </g>
        <g id="그룹_4451-2" data-name="그룹 4451" transform="translate(250 -527)">
            <g id="사각형_2751-2" data-name="사각형 2751" class="cls-3">
                <path class="cls-7" d="M0 0h297v275H0z" transform="translate(46 527)"/>
                <path class="cls-1" d="M.5.5h296v274H.5z" transform="translate(46 527)"/>
            </g>
            <text id="경고가_2회_누적되면_아이디_사_용이_제한됩니다." data-name="경고가 2회 누적되면 아이디 사 용이 제한됩니다." class="cls-4" transform="translate(73 650)"><tspan x="0" y="22">경고가 2회 누적되면 아이디 사</tspan><tspan x="0" y="50">용이 제한됩니다.</tspan></text>
            <text id="경고" class="cls-5" transform="translate(73 622)"><tspan x="0" y="0">경고</tspan></text>
            <text id="Step_2" data-name="Step 2" class="cls-6" transform="translate(73 587)"><tspan x="0" y="0">STEP 2</tspan></text>
        </g>
        <g id="그룹_4451-3" data-name="그룹 4451" transform="translate(546 -527)">
            <g id="사각형_2751-3" data-name="사각형 2751" class="cls-3">
                <path class="cls-7" d="M0 0h297v275H0z" transform="translate(46 527)"/>
                <path class="cls-1" d="M.5.5h296v274H.5z" transform="translate(46 527)"/>
            </g>
            <text id="_7일간_위반_서비스의_이용을_제_한합니다" data-name="7일간 위반 서비스의 이용을 제 한합니다" class="cls-4" transform="translate(73 650)"><tspan x="0" y="22">7일간 위반 서비스의 이용을 제</tspan><tspan x="0" y="50">한합니다</tspan></text>
            <text id="서비스_이용제한" data-name="서비스 이용제한" class="cls-5" transform="translate(73 622)"><tspan x="0" y="0">서비스 이용제한</tspan></text>
            <text id="Step_3" data-name="Step 3" class="cls-6" transform="translate(73 587)"><tspan x="0" y="0">STEP 3</tspan></text>
        </g>
        <g id="그룹_4451-4" data-name="그룹 4451" transform="translate(842 -527)">
            <g id="사각형_2751-4" data-name="사각형 2751" class="cls-3">
                <path class="cls-7" d="M0 0h297v275H0z" transform="translate(46 527)"/>
                <path class="cls-1" d="M.5.5h296v274H.5z" transform="translate(46 527)"/>
            </g>
            <text id="한달_간_로그인이_중지_됩니다._E_M내_모든_서비스에서_로그_인하실_수_없습니다." data-name="한달 간 로그인이 중지 됩니다. E&amp;M내 모든 서비스에서 로그 인하실 수 없습니다." class="cls-4" transform="translate(73 650)"><tspan x="0" y="22">한달 간 로그인이 중지 됩니다. </tspan><tspan x="0" y="50">E&amp;M</tspan><tspan y="50">내 모든 서비스에서 로그</tspan><tspan x="0" y="78">인하실 수 없습니다.</tspan></text>
            <text id="아이디_규제" data-name="아이디 규제" class="cls-5" transform="translate(73 622)"><tspan x="0" y="0">아이디 규제</tspan></text>
            <text id="Step_4" data-name="Step 4" class="cls-6" transform="translate(73 587)"><tspan x="0" y="0">STEP 4</tspan></text>
        </g>
        <g id="그룹_4451-5" data-name="그룹 4451" transform="translate(1138 -527)">
            <g id="사각형_2751-5" data-name="사각형 2751" class="cls-3">
                <path class="cls-7" d="M0 0h297v275H0z" transform="translate(46 527)"/>
                <path class="cls-1" d="M.5.5h296v274H.5z" transform="translate(46 527)"/>
            </g>
            <text id="E_M에서_아이디_사용_시_영구_히_제한됩니다." data-name="E&amp;M에서 아이디 사용 시, 영구 히 제한됩니다." class="cls-4" transform="translate(73 650)"><tspan x="0" y="22">E&amp;M</tspan><tspan y="22">에서 아이디 사용 시, 영구</tspan><tspan x="0" y="50">히 제한됩니다.</tspan></text>
            <text id="영구중지" class="cls-5" transform="translate(73 622)"><tspan x="0" y="0">영구중지</tspan></text>
            <text id="Step_5" data-name="Step 5" class="cls-6" transform="translate(73 587)"><tspan x="0" y="0">STEP 5</tspan></text>
        </g>
        <g id="그룹_4451-6" data-name="그룹 4451" transform="translate(1434 -527)">
            <g id="사각형_2751-6" data-name="사각형 2751" class="cls-3">
                <path class="cls-7" d="M0 0h297v275H0z" transform="translate(46 527)"/>
                <path class="cls-1" d="M.5.5h296v274H.5z" transform="translate(46 527)"/>
            </g>
            <text id="_3일_내에_회원_스스로_위반_내_용을_시정해야_합니다._시정하_지_않을_경우_아이디_사용이_제_한_될_수_있습니다." data-name="3일 내에 회원 스스로 위반 내 용을 시정해야 합니다. 시정하 지 않을 경우 아이디 사용이 제 한 될 수 있습니다." class="cls-4" transform="translate(73 650)"><tspan x="0" y="22">3일 내에 회원 스스로 위반 내</tspan><tspan x="0" y="50">용을 시정해야 합니다. 시정하</tspan><tspan x="0" y="78">지 않을 경우 아이디 사용이 제 </tspan><tspan x="0" y="106">한 될 수 있습니다.</tspan></text>
            <text id="신고_접수-2" data-name="신고 접수" class="cls-5" transform="translate(73 622)"><tspan x="0" y="0">신고 접수</tspan></text>
            <text id="Step_1-2" data-name="Step 1" class="cls-6" transform="translate(73 587)"><tspan x="0" y="0">STEP 1</tspan></text>
        </g>
    </g>
</svg>
