<svg xmlns="http://www.w3.org/2000/svg" width="28" height="28" viewBox="0 0 28 28">
    <defs>
        <style>
            .cls-2{fill:none}.cls-3{fill:#fff}
        </style>
    </defs>
    <g id="sc_btn_schedule-alarm_off" opacity="0.7" transform="translate(-193.496 -362)">
        <path id="icon" d="M0 0H28V28H0z" class="cls-2" transform="translate(193.496 362)"/>
        <path id="타원_384" d="M14 1.2a12.8 12.8 0 0 0-9.051 21.851 12.8 12.8 0 1 0 18.1-18.1A12.716 12.716 0 0 0 14 1.2M14 0A14 14 0 1 1 0 14 14 14 0 0 1 14 0z" class="cls-3" transform="translate(193.496 362)"/>
        <g id="ICON-2" transform="translate(201.497 369)">
            <path id="사각형_1889" d="M0 0h12v14H0z" class="cls-2"/>
            <path id="패스_4338" d="M10 16.5a1.468 1.468 0 0 1-1.5-1.44h3A1.473 1.473 0 0 1 10 16.5zm6-2.154H4v-.717l1.5-1.439V8.6a4.384 4.384 0 0 1 3.373-4.536v-.487a1.126 1.126 0 0 1 2.249 0v.488A4.4 4.4 0 0 1 14.5 8.6v3.59l1.5 1.435v.718z" class="cls-3" transform="translate(-4 -2.5)"/>
        </g>
    </g>
</svg>
