<svg xmlns="http://www.w3.org/2000/svg" width="32" height="32" viewBox="0 0 32 32">
    <path fill="none" d="M0 0H32V32H0z"/>
    <path fill="#fff" d="M19.77 29.371c1.46 0 3.223-.111 5.6-.352 2.153-.388 2.185-.951 2.306-1.732a1.707 1.707 0 0 0-.854-1.833 2.108 2.108 0 0 0 2.005-2.074 1.822 1.822 0 0 0-1.119-2.059s2.574.229 2.516-2.236a2.25 2.25 0 0 0-1.962-2.285c.832-.114 2.067-.2 2.067-2.724 0-2.76-3.5-2.472-3.5-2.472H18.95l.187-1.572a27.962 27.962 0 0 0 .663-4.49c.041-1.8.112-3.429-1.7-3.6-.182 0-.373-.018-.373-.018a1.654 1.654 0 0 0-1.873 1.34 12.635 12.635 0 0 1-1.422 4.369 26.679 26.679 0 0 1-2.464 3.967 23.731 23.731 0 0 0-1.4 1.976C9.828 14.74 9.5 15.335 9.5 15.335v11.787a57.4 57.4 0 0 0 6.773 1.984 21.377 21.377 0 0 0 3.5.266M7 29a1 1 0 0 0 1-1V13a1 1 0 0 0-1-1H3a1 1 0 0 0-1 1v15a1 1 0 0 0 1 1h4m12.77 1.971a23.157 23.157 0 0 1-3.752-.286 36.562 36.562 0 0 1-5.44-1.528c-.41-.138-.783-.264-1.1-.367A2.6 2.6 0 0 1 7 30.6H3A2.6 2.6 0 0 1 .4 28V13A2.6 2.6 0 0 1 3 10.4h4a2.6 2.6 0 0 1 2.5 1.879c.312-.466.757-1.1 1.2-1.659A24.986 24.986 0 0 0 13 6.908l.068-.134a11.028 11.028 0 0 0 1.2-3.766A3.238 3.238 0 0 1 17.726.322q.064 0 .127.005c.039 0 .166.012.27.013q.064 0 .128.007a3.2 3.2 0 0 1 2.9 2.248 8.729 8.729 0 0 1 .249 2.89v.094a27.275 27.275 0 0 1-.62 4.42h5.992c.072 0 .185-.009.329-.009a6.193 6.193 0 0 1 2.611.539 3.738 3.738 0 0 1 2.215 3.542 5 5 0 0 1-.7 2.83 3.741 3.741 0 0 1 .6 2.191 3.654 3.654 0 0 1-.993 2.7 3.443 3.443 0 0 1-.484.411 4 4 0 0 1 .069 1.35 3.96 3.96 0 0 1-1.219 2.555 3.694 3.694 0 0 1 .07 1.382q0 .021-.006.041l-.008.055a3.023 3.023 0 0 1-.9 1.905 5.089 5.089 0 0 1-2.7 1.1q-.061.011-.123.017c-2.426.248-4.258.363-5.763.363z" transform="translate(-0.148 -0.002)"/>
</svg>
