<svg xmlns="http://www.w3.org/2000/svg" width="32" height="32" viewBox="0 0 32 32">
    <path fill="rgba(20,20,20,0)" d="M0 0h32v32H0z"/>
    <path fill="#fff" d="M12802-5732.2h-28a.8.8 0 0 1-.8-.8v-13a.8.8 0 0 1 .8-.8.8.8 0 0 1 .8.8v12.2h26.4v-12.2a.8.8 0 0 1 .8-.8.8.8 0 0 1 .8.8v13a.8.8 0 0 1-.8.8zm-13.963-10a.8.8 0 0 1-.8-.8v-17.086l-6.43 6.43a.8.8 0 0 1-1.131 0 .8.8 0 0 1-.234-.566.8.8 0 0 1 .234-.566l7.778-7.778a.8.8 0 0 1 .565-.234h.023a.8.8 0 0 1 .3.06.8.8 0 0 1 .247.161l.01.01 7.773 7.778a.8.8 0 0 1 .234.565.8.8 0 0 1-.234.566.8.8 0 0 1-1.131 0l-6.409-6.412V-5743a.8.8 0 0 1-.794.8z" opacity="0.995" transform="translate(-12772 5763.5)"/>
</svg>
