<svg xmlns="http://www.w3.org/2000/svg" width="28" height="28" viewBox="0 0 28 28">
    <defs>
        <style>
            .cls-1{fill:none}
        </style>
    </defs>
    <g id="sc_btn_schedule-alarm_on" transform="translate(-193.496 -362)">
        <path id="icon" d="M0 0H28V28H0z" class="cls-1" transform="translate(193.496 362)"/>
        <circle id="타원_384" cx="14" cy="14" r="14" fill="#fff" transform="translate(193.496 362)"/>
        <g id="ICON-2" transform="translate(201.497 369)">
            <path id="사각형_1889" d="M0 0h12v14H0z" class="cls-1"/>
            <path id="패스_4338" d="M10 16.5a1.468 1.468 0 0 1-1.5-1.44h3A1.473 1.473 0 0 1 10 16.5zm6-2.154H4v-.717l1.5-1.439V8.6a4.384 4.384 0 0 1 3.373-4.536v-.487a1.126 1.126 0 0 1 2.249 0v.488A4.4 4.4 0 0 1 14.5 8.6v3.59l1.5 1.435v.718z" transform="translate(-4 -2.5)"/>
        </g>
    </g>
</svg>
