<svg xmlns="http://www.w3.org/2000/svg" width="24" height="24" viewBox="0 0 24 24">
    <defs>
        <style>
            .cls-2{fill:none;stroke:gray;stroke-linecap:round;stroke-linejoin:round;stroke-width:1.2px}
        </style>
    </defs>
    <g id="icon_이용권" transform="translate(-14)">
        <path id="사각형_2225" fill="none" d="M0 0H24V24H0z" transform="translate(14)"/>
        <g id="그룹_4392" transform="translate(-4.5 2.423)">
            <path id="빼기_6" d="M14.5 15h-13A1.5 1.5 0 0 1 0 13.5v-3.242a3.212 3.212 0 0 0 1.6-2.772A3.211 3.211 0 0 0 0 4.715V1.5A1.5 1.5 0 0 1 1.5 0h13A1.5 1.5 0 0 1 16 1.5v3.217a3.222 3.222 0 0 0 0 5.568V13.5a1.5 1.5 0 0 1-1.5 1.5z" class="cls-2" transform="translate(19.5 3.076)"/>
            <path id="다각형_1" d="M2.6 0l2.6 4.165H0z" class="cls-2" transform="translate(29.964 7.977) rotate(90)"/>
        </g>
    </g>
</svg>
