<svg xmlns="http://www.w3.org/2000/svg" width="197.411" height="77.137" viewBox="0 0 197.411 77.137">
    <g data-name="no.1 K콘텐츠 플랫폼 TVING">
        <path data-name="Union 7" d="M10741.386 10566.137v-44.7h39.9l-4.007 10.615a4.05 4.05 0 0 1-3.771 2.608h-17.577v18.51h8.629v-12.552h16.253v25.515zm-14.214 0a3.762 3.762 0 0 1-2.96-1.442l-14.416-18.385v19.827h-14.427v-44.7h9.01a3.756 3.756 0 0 1 2.955 1.437l14.435 18.381v-19.817h14.425v44.7zm-51.5 0v-44.7h14.541v44.7zm-32.972 0-17.2-44.7h13.8a3.074 3.074 0 0 1 2.9 2.043l7.757 21.719 7.79-21.724a3.085 3.085 0 0 1 2.9-2.038h13.772l-17.209 44.7zm-44.1-.051v-30.526h-13.5v-14.119h34.688a3.08 3.08 0 0 1 2.882 2l4.551 12.124h-13.672v30.524zm147.813-61.508-5 2.9-.8-1.369 4.992-2.819v-1.691h1.61v1.691l5 2.819-.809 1.369zm-58.105 2.9-2.344-1.8v-3.966l3.244-.536v3.872h10.45v2.433zm-18.981 0-2.343-1.8v-3.457h3.244v3.006h10.449v2.254zm87.686 0-1.291-.963v-4.188h11.118v5.151zm.324-1.317h7.891v-2.547h-7.891zm-31.992 1.317-1.291-.963v-2.9h9.5v-1.128h-9.583v-1.285h11.193v3.7h-9.5v1.256h9.665v1.317zm-95.254-.312v-3.276h3.274v3.276zm5.693-.286v-2.7h2.89v-10.407h-2.89v-2.7l3.855-.579 2.5 1.93v11.754h2.313v2.7zm24.046 0-2.387-6.843h-2.14v6.843h-3.467v-16.186h3.467v6.453h2.156l2.37-6.453h3.566l-2.89 7.9 2.89 8.288zm-40.575 0-2.313-2.313V10493l2.313-2.311h6.358l2.313 2.311v11.562l-2.313 2.313zm1.155-2.795h4.045v-10.6h-4.045zm-9.633 2.795-4.355-9.884.116 9.884h-3.469v-16.186h3.855l4.354 9.884-.116-9.884h3.469v16.186zm90.523-.839v-2.521h16.395v2.521zm-4.884-15.855h3.063v12.433l-3.063.541zm-4.145 6.307h-1.983v-2.162h1.983v-3.964h2.881v11.08l-2.881.541zm17.225 1.354-6.3 3.869-1.439-2.067 6.126-3.967v-1.618h-5.136v-2.524h5.136v-1.54h3.241v1.531h5.133v2.524h-5.133v1.618l6.126 3.967-1.442 2.067zm-43.955 3.333v-2.346h5.314v-1.621l3.244-.089v1.71h7.836v2.346zm84.819-4.086h-1.854v3.464l-1.609.162v-8.377h1.609v3.545h1.854v-3.707h1.61v8.7l-1.61.159zm3.591 3.64v-1.32h6.526v-1.594h-4.916v-1.288h2.256v-2.578h-2.256v-1.291h11.437v1.291h-2.254v2.578h2.254v1.288h-4.913v1.594h6.526v1.32zm5.477-4.2h3.707v-2.578h-3.707zm-75.894 2.3v-7.925h6.754v2.34h-3.693v1.264h2.613v1.892l-2.613.251v1.28l4.775-.271v2.162l-5.5.809zm55.227.517v-3.547h4.188v-1.691h-4.348v-1.285h5.961v4.107l-4.188.257v1.835l5.558-.322v1.128l-5.88.646zm-16.478.481v-1.3h14.657v1.3zm-45.034-3.788-10.447.487-.179-2.433 10.626-.073v-1.136h-10.087v-2.341h13.331l-.087 7.278-3.157.179zm46.645 1.129v-1.288h2.256v-1.932h-2.256v-1.291h11.437v1.291h-2.254v1.932h2.254v1.288zm3.866-1.288h3.7v-1.932h-3.7z" transform="translate(-10584.594 -10489.5)" style="fill:#fff;stroke:transparent;stroke-miterlimit:10"/>
    </g>
</svg>
