<svg xmlns="http://www.w3.org/2000/svg" id="T_ONLY" width="56.611" height="17.09" viewBox="0 0 56.611 17.09">
    <defs>
        <style>
            .cls-2{fill:#fff}
        </style>
    </defs>
    <g id="ONLY" transform="translate(20.508 3.435)">
        <path id="패스_2114" fill="#fff" d="M612.889 580.092a5.624 5.624 0 0 1 0-5.487 4.712 4.712 0 0 1 1.839-1.783 5.294 5.294 0 0 1 4.883 0 4.765 4.765 0 0 1 1.846 1.783 5.583 5.583 0 0 1 0 5.487 4.749 4.749 0 0 1-1.846 1.79 5.3 5.3 0 0 1-4.883 0 4.7 4.7 0 0 1-1.839-1.79zm1.963-5.363a4.007 4.007 0 0 0 0 5.231 3.344 3.344 0 0 0 4.641 0 3.988 3.988 0 0 0 0-5.231 3.343 3.343 0 0 0-4.641 0z" transform="translate(-612.172 -572.224)" style="isolation:isolate" opacity="0.1"/>
        <path id="패스_2115" d="M661.785 582.789h-1.734l-4.856-7.45v7.45h-1.665v-9.841h2.123l4.468 6.979v-6.979h1.665z" class="cls-2" transform="translate(-641.943 -572.745)"/>
        <path id="패스_2116" d="M697.793 582.789h-6.174v-9.841h1.665v8.252h4.51z" class="cls-2" transform="translate(-669.364 -572.745)"/>
        <path id="패스_2117" d="M713.885 578.639l-3.441-5.675h1.97l2.358 4.121 2.372-4.121h1.873l-3.468 5.675v4.161h-1.666z" class="cls-2" transform="translate(-682.915 -572.756)"/>
        <path id="패스_2113" d="M612.878 580.082a5.618 5.618 0 0 1 0-5.482 4.713 4.713 0 0 1 1.837-1.781 5.291 5.291 0 0 1 4.88 0 4.762 4.762 0 0 1 1.843 1.781 5.576 5.576 0 0 1 0 5.482 4.746 4.746 0 0 1-1.843 1.789 5.293 5.293 0 0 1-4.88 0 4.7 4.7 0 0 1-1.837-1.789zm1.961-5.355a4 4 0 0 0 0 5.226 3.34 3.34 0 0 0 4.637 0 3.981 3.981 0 0 0 0-5.226 3.339 3.339 0 0 0-4.637 0z" class="cls-2" transform="translate(-612.164 -572.223)"/>
    </g>
    <g id="T" transform="translate(0 0)">
        <rect id="tag_free2" width="17.09" height="17.09" rx="1.2" style="isolation:isolate" fill="#8000ff" opacity="0.88"/>
        <path id="패스_2128" d="M561.1 574.2h-7.51v3.057h2.923v6.608h3.236v-6.608h2.962l-.986-2.621a.666.666 0 0 0-.624-.432" class="cls-2" transform="translate(-549.489 -570.209)"/>
    </g>
</svg>
