<svg xmlns="http://www.w3.org/2000/svg" id="T_ORIGINAL" width="85.54" height="17.096" viewBox="0 0 85.54 17.096">
    <defs>
        <style>
            .cls-1{fill:#fff}
        </style>
    </defs>
    <g id="그룹_2454" transform="translate(20.515 3.412)">
        <path id="패스_2104" d="M561.29 580.039a5.627 5.627 0 0 1 0-5.491 4.717 4.717 0 0 1 1.84-1.784 5.3 5.3 0 0 1 4.887 0 4.771 4.771 0 0 1 1.847 1.784 5.585 5.585 0 0 1 0 5.491 4.755 4.755 0 0 1-1.847 1.792 5.3 5.3 0 0 1-4.887 0 4.7 4.7 0 0 1-1.84-1.792zm1.965-5.367a4.011 4.011 0 0 0 0 5.235 3.347 3.347 0 0 0 4.644 0 3.989 3.989 0 0 0 0-5.235 3.347 3.347 0 0 0-4.644 0z" class="cls-1" transform="translate(-560.575 -572.159)"/>
        <path id="패스_2105" d="M606.939 582.751l-2.068-3.888h-1.219v3.888h-1.68v-9.844h3.777a3.01 3.01 0 0 1 2.235.854 2.9 2.9 0 0 1 .847 2.131 2.808 2.808 0 0 1-.6 1.805 2.874 2.874 0 0 1-1.625 1l2.222 4.054zm-3.291-5.357h1.792a1.792 1.792 0 0 0 1.229-.409 1.38 1.38 0 0 0 .465-1.09 1.4 1.4 0 0 0-.465-1.1 1.792 1.792 0 0 0-1.229-.409h-1.787z" class="cls-1" transform="translate(-590.373 -572.689)"/>
        <path id="패스_2106" d="M634.518 582.759h-1.693v-9.844h1.693z" class="cls-1" transform="translate(-612.581 -572.697)"/>
        <path id="패스_2107" d="M653.731 582.2h-1.347l-.125-1.254a2.861 2.861 0 0 1-1.14 1.034 3.876 3.876 0 0 1-1.875.424 4.708 4.708 0 0 1-3.43-1.4 5.017 5.017 0 0 1-1.417-3.742 5.242 5.242 0 0 1 .714-2.749 4.683 4.683 0 0 1 1.824-1.785 5.077 5.077 0 0 1 2.416-.591 4.73 4.73 0 0 1 2.867.847 4.2 4.2 0 0 1 1.576 2.152l-1.568.6a2.849 2.849 0 0 0-1.014-1.471 2.938 2.938 0 0 0-1.86-.582 3.2 3.2 0 0 0-2.291.93 3.5 3.5 0 0 0-.972 2.652 3.612 3.612 0 0 0 .945 2.659 3.126 3.126 0 0 0 2.306.951 2.755 2.755 0 0 0 2.033-.7 2.487 2.487 0 0 0 .785-1.507h-3.248v-1.458h4.819z" class="cls-1" transform="translate(-620.907 -572.136)"/>
        <path id="패스_2108" d="M685.888 582.759h-1.694v-9.844h1.694z" class="cls-1" transform="translate(-649.556 -572.697)"/>
        <path id="패스_2109" d="M706.448 582.759h-1.736l-4.86-7.456v7.456h-1.666v-9.844h2.125l4.471 6.984v-6.984h1.666z" class="cls-1" transform="translate(-659.628 -572.697)"/>
        <path id="패스_2110" d="M739.568 582.759l-.93-2.472h-4.166l-.912 2.472h-1.76l3.833-9.844h1.931l3.833 9.844zm-3.012-8.04l-1.5 4.027h3z" class="cls-1" transform="translate(-683.82 -572.697)"/>
        <path id="패스_2111" d="M776.767 582.759h-6.178v-9.844h1.666v8.262h4.513z" class="cls-1" transform="translate(-711.744 -572.697)"/>
    </g>
    <g id="그룹_2466" transform="translate(0 0)">
        <rect id="tag_free2" width="17.096" height="17.096" rx="2" style="isolation:isolate" fill="#ff153c" opacity="0.88"/>
        <path id="패스_2128" d="M509.513 574.2H502v3.058h2.925v6.61h3.237v-6.61h2.963l-.986-2.621a.666.666 0 0 0-.624-.432" class="cls-1" transform="translate(-497.897 -570.208)"/>
    </g>
</svg>
