<svg xmlns="http://www.w3.org/2000/svg" id="label_age_15" width="20" height="20" viewBox="0 0 20 20">
    <defs>
        <style>
            .cls-2{fill:#fff}
        </style>
    </defs>
    <path id="패스_4364" fill="#d65c1f" d="M453.836 321.256h-15.491a2.255 2.255 0 0 1-2.254-2.256v-15.489a2.255 2.255 0 0 1 2.254-2.255h15.491a2.255 2.255 0 0 1 2.255 2.255V319a2.255 2.255 0 0 1-2.255 2.255" transform="translate(-436.091 -301.256)"/>
    <g id="그룹_5405" transform="translate(3.217 3.108)">
        <path id="패스_4365" d="M457.383 334.546v-9.94h-1.1l1.425-3.843h2.761v13.783z" class="cls-2" transform="translate(-456.282 -320.764)"/>
        <path id="패스_4366" d="M496.98 325.472h-4.834v-2.02h5.054v-2.688h-8.082v7.342h5.178v3.842h-2.183v-1.8h-2.995v4.094a.308.308 0 0 0 .308.308h7.556a.308.308 0 0 0 .308-.308v-8.462a.308.308 0 0 0-.31-.308z" class="cls-2" transform="translate(-483.884 -320.764)"/>
    </g>
</svg>
