<svg xmlns="http://www.w3.org/2000/svg" id="label_age_12" width="20" height="20" viewBox="0 0 20 20">
    <defs>
        <style>
            .cls-2{fill:#fff}
        </style>
    </defs>
    <path id="패스_4367" fill="#e9a61a" d="M302.926 321.256h-15.49a2.254 2.254 0 0 1-2.255-2.256v-15.489a2.255 2.255 0 0 1 2.255-2.255h15.49a2.255 2.255 0 0 1 2.255 2.255V319a2.255 2.255 0 0 1-2.255 2.254" transform="translate(-285.181 -301.256)"/>
    <g id="그룹_5407" transform="translate(3.227 3.109)">
        <path id="패스_4368" d="M306.533 334.547v-9.94h-1.1l1.425-3.842h2.761v13.782z" class="cls-2" transform="translate(-305.432 -320.766)"/>
        <path id="패스_4369" d="M345.537 320.766H338a.308.308 0 0 0-.308.308v4.166h3.008v-1.876h2.129v1.659l-5.251 7.487v2.021h8.227v-2.689h-4.4l3.842-5.393c.12-.169.216-.316.289-.443a2.889 2.889 0 0 0 .18-.37 1.605 1.605 0 0 0 .1-.4 4.29 4.29 0 0 0 .027-.523v-3.643a.308.308 0 0 0-.306-.304z" class="cls-2" transform="translate(-332.46 -320.766)"/>
    </g>
</svg>
